<?xml version="1.0" encoding="utf-8"?>
<!-- Generator: Adobe Illustrator 21.0.2, SVG Export Plug-In . SVG Version: 6.00 Build 0)  -->
<svg version="1.1" id="Layer_1" xmlns="http://www.w3.org/2000/svg" xmlns:xlink="http://www.w3.org/1999/xlink" x="0px" y="0px"
	 viewBox="0 0 288 99.5" style="enable-background:new 0 0 288 99.5;" xml:space="preserve">
<style type="text/css">
	.Shadow{fill:#FFFFFF;}
	.Round_x0020_Corners_x0020_10_x0020_pt{fill:none;}
	.Live_x0020_Reflect_x0020_X{fill:none;}
	.Illuminate_x0020_Yellow_x0020_{fill:#F4D63A;stroke:#FFFFFF;stroke-width:0.25;stroke-miterlimit:1;}
	.Tissue_x0020_Paper{opacity:0.75;fill:url(#SVGID_1_);}
	.st0{fill:#007B9B;}
	.st1{fill:#6E7277;}
</style>
<linearGradient id="SVGID_1_" gradientUnits="userSpaceOnUse" x1="-216" y1="-287.5078" x2="-215" y2="-287.5078">
	<stop  offset="0" style="stop-color:#00A14B"/>
	<stop  offset="1.032219e-02" style="stop-color:#4DA848"/>
	<stop  offset="2.911464e-02" style="stop-color:#86B442"/>
	<stop  offset="4.840120e-02" style="stop-color:#ADC03B"/>
	<stop  offset="6.787279e-02" style="stop-color:#CCCA33"/>
	<stop  offset="8.756424e-02" style="stop-color:#E3D22A"/>
	<stop  offset="0.1076" style="stop-color:#F4D822"/>
	<stop  offset="0.1281" style="stop-color:#FEDC1B"/>
	<stop  offset="0.15" style="stop-color:#FFDE17"/>
	<stop  offset="0.3" style="stop-color:#F26522"/>
	<stop  offset="0.47" style="stop-color:#00A14B"/>
	<stop  offset="0.64" style="stop-color:#FFDE17"/>
	<stop  offset="0.8012" style="stop-color:#F26522"/>
	<stop  offset="1" style="stop-color:#00A14B"/>
</linearGradient>
<g>
	<g>
		<path d="M187.8,128.1c-1.5,0-2.7,1.2-2.7,2.7c0,1.5,1.2,2.7,2.6,2.7c1.4,0,2.6-1.2,2.6-2.7C190.4,129.3,189.2,128.1,187.8,128.1z
			 M187.8,127.5c1.7,0,3.2,1.5,3.2,3.2c0,1.8-1.4,3.2-3.2,3.2c-1.8,0-3.2-1.4-3.2-3.2C184.5,128.9,185.9,127.5,187.8,127.5z
			 M187.3,130.5h0.3c0.4,0,0.7-0.2,0.7-0.5c0-0.3-0.1-0.4-0.6-0.4h-0.2h-0.2V130.5z M186.5,132.6v-3.6h1.1c0.5,0,0.7,0,0.9,0.1
			c0.3,0.1,0.5,0.5,0.5,0.9c0,0.4-0.2,0.7-0.7,1l1,1.6h-0.9l-0.8-1.5h-0.3v1.5H186.5z M161.8,115.3c0-0.5-0.1-0.8-0.3-1.2
			c-0.3,0.2-1.2,0.8-1.9,1.4c-2.6,2.2-5.3,5.6-7,8.7c-0.2,0.4-0.6,1.1-0.8,1.4c0.2,0,0.4-0.1,0.5-0.1c0.8-0.1,2.9-0.8,3.4-1
			c2.3-1,4.6-4.2,5.6-6.5C161.6,117.4,161.9,116.2,161.8,115.3z M160.1,114.3c0.3-0.2,0.7-0.4,1.1-0.7c-0.2-0.3-0.5-0.7-0.9-1
			c-1.1-1-2.1-1.2-3.7-1.4c-4.3-0.5-10,2.9-12.3,6.4c-0.3,0.5-0.7,1.2-0.7,1.8c0,0.5,0,1.1,0.3,1.5c2.7,3.2,10.5-2.5,11.2-5.6
			c0.5-0.5,0.3,0.8,0.2,1.1c-0.5,0.9-2.3,2.8-3.1,3.4c-1.3,1-2.7,1.7-4.2,2.3c-0.9,0.3-1.8,0.4-2.8,0.2c-1.1-0.2-2.2-1.4-2.4-2.5
			c-0.1-1,0.5-2.6,1.1-3.4c0.6-0.9,2-2.5,3.1-3.2c2.7-1.9,5.2-2.6,8.5-2.7c1.2-0.1,2.2,0.2,3.2,0.5c0.8,0.3,1.5,0.8,2.1,1.3
			c0.3,0.3,0.7,0.7,1,1.1c0.3-0.2,0.6-0.4,0.9-0.5l0.1-0.1c0.1-0.1,2.2-1,3.2-0.9c0.4,0,0.8,0.2,0.1,0.4c-2.6,0.7-3.8,1.5-4,1.6
			c0.1,0.2,0.2,0.4,0.3,0.5l0,0.1c0.4,1.1,0.7,1.9,0.4,3.1c-0.2,1.1-0.6,2.2-1.2,3.2c-2.1,3.2-5.7,5.2-9.4,5.6c-0.3,0-0.5,0-0.8,0
			c-0.4,0.6-0.8,1.2-1.3,1.9c-0.7,0.9-1.4,1.9-2.3,2.6c-3.5,3.2-7.5,4.4-12.3,4.4c-2,0-3.6-0.6-5.1-1.5c-1.6-1-2.2-3.8-1.5-5.5
			c1-2.4,4.6-4.7,6.6-5.5c2.4-0.9,6.8-1.3,8.9,0.4c0.4,0.3,0.7,0.7,0.9,1.2c0.6,1.1,0,2.7-0.7,3.5c-1.6,1.9-5.4,3.2-7.8,3.3
			c-0.5,0-1.4,0-1.7-0.4c-0.1-0.1-0.1-0.3,0-0.3c0.8,0,1.5,0.2,2.3,0.1c1.9-0.2,3.5-0.8,5.1-1.6c1.3-0.7,2.7-2.2,2.5-3.8
			c-0.1-1-0.9-1.7-1.8-2.1c-5.2-1.9-16.9,3.2-13.4,9.3c0.4,0.8,1.4,1.4,2.2,1.7c3.3,1.3,7.2,0,10-1.9c1.7-1.1,2.9-2.5,4.3-3.9
			c0.2-0.2,0.7-0.7,1.1-1.1c0,0,0.1-0.1,0.1-0.2c0.2-0.3,0.5-0.5,0.6-0.7c0.1-0.1,0.2-0.3,0.3-0.4c-0.3-0.1-0.5-0.2-0.7-0.3
			c-0.6-0.4-1.1-1,0-0.5c0.3,0.2,0.6,0.3,1,0.3l0.1-0.1c0.1-0.1,1.7-2,1.9-2.2c0.6-0.6,1.2-1.3,1.8-1.9c0.9-1.1,1.8-2.3,2.8-3.4
			c1-1.1,2.6-2.3,3.9-3.1C159.7,114.6,159.9,114.4,160.1,114.3z M119.7,128c-0.5,0.5-2.2-0.8-3.7,0.1c-1.6,0.9-4,4.9-2.1,6.3
			c1.2,0.8,4-0.2,4.7-1.3c0.3-0.4,0.5-0.9,0.6-1.4c-0.9-0.4-1.6-0.4-2.6-0.4c-0.7,0-1.1,0.9-0.6,1.4c0.1,0.1,0.3,0.2,0.4,0.1
			c-0.4-0.8,1.1-1.4,1-0.2c0,0.4-0.4,0.6-0.7,0.7c-1.3,0.4-1.6-1-1.3-1.9c0.3-1,1.7-1.4,2.7-1.5c2-0.1,4.1,0.9,6,0.6
			c1.9-0.3,1.4-2.2,0.2-1.8c0.4,1.5-1.6,1.8-1.6,0.4c0-1.6,3.5-1.2,3.3,0.6c0,0.3-0.2,0.6-0.3,0.9c-0.9,1.7-3.1,1.9-4.8,1.4
			c-0.2,0.3-0.4,0.7-0.6,1c-1.5,1.7-4.1,3.1-6.4,2.9c-1.1-0.1-2.5-1.1-2.9-2.2c-0.3-1-0.3-1.5,0-2.6c0.7-2.1,2.3-3.3,4.5-3.8
			c0.2,0,1-0.2,1-0.4c0-0.3-0.2-0.4-0.2-1c0-1.5,2-2.7,3.3-3.1c1.4-0.4,3-0.6,4,0.7c0.2,0.3,0.4,0.9,0.3,1.3c-0.2,0.9-1.8,2-2.5,0.9
			c-0.7-1.2,2-1.2,1.8-1.8c-0.7-1.7-4.4,0.4-5,2.1C117.7,127.4,120,126.9,119.7,128z M162.8,122.8c-0.8,0.8-1.6,1.5-2.3,2.4
			c-0.2,0.2-0.3,0.4-0.3,0.4s0.4-0.2,1-0.7c0.8-0.6,1.8-1.3,2.4-1.8c0.7-0.7,1.6-1.3,2.3-1.9c0.8-0.6,5.9-5.1,5.9-5.7
			c0-0.3-0.8,0.2-0.9,0.2c-1,0.5-2.1,1.5-2.9,2.3C166.3,119.6,164.5,121.1,162.8,122.8z M169.6,125.6c-0.4-1.1-4,1.9-4.4,2.3
			c-1.1,1-4,3.8-4.4,5.1c-0.3,0.9,1.2-0.1,1.4-0.2c1.5-0.9,2.9-2.3,4.1-3.5c0.9-0.9,2.3-2,3-3C169.4,126.1,169.7,125.8,169.6,125.6z
			 M175.6,134c-0.3-0.2-0.4-0.6-0.5-1l0-0.1c0-0.1,0-0.2,0-0.3c0-0.3,0.1-0.5,0.1-0.5s-0.5,0.3-0.8,0.5l-0.2,0.1
			c-1.3,0.9-3.4,2.2-4.4,1.3c-0.3-0.2-0.4-0.6-0.5-1l0-0.1c0-0.1,0-0.2,0-0.3c0-0.3,0.1-0.5,0.1-0.5s-0.5,0.3-0.8,0.5
			c-0.4,0.3-1,0.7-1.6,1c-0.6,0.4-1.3,0.7-1.8,0.7c-0.4,0-0.9-0.4-1-0.8c-0.1-0.2,0-0.6,0-0.9c0.1-0.4,0.2-0.7,0.2-0.7
			s-0.6,0.4-0.9,0.6c-0.1,0-0.1,0.1-0.1,0.1c-1,0.7-2.1,1.8-3.4,1.5c-0.6-0.1-0.7-0.7-0.7-1.3c0,0,0-0.1,0-0.2
			c0-0.6,0.3-1.4,0.3-1.4s-0.6,0.4-0.9,0.6c0,0,0,0-0.1,0.1c-1.4,1-3.9,3-5,1.8c-0.5-0.6-0.4-1.6-0.1-2.2
			c2.4-4.8,10.3-12.3,14.7-15.4c0.7-0.5,4.2-3.1,4.8-1.5c0.7,1.8-9.4,9.1-10.3,9.8c-1.7,1.2-3.6,2.4-5,3.9c-0.8,0.8-1.6,1.9-2.1,2.8
			c-0.3,0.4-1,1.5-1,2c0.1,0.5,1,0,1.3-0.1c1.8-0.8,3.4-2.3,5-3.5c0.3-0.2,0.4-0.5,0.7-0.7c0.4-0.3,0.7-0.8,1.2-1.1
			c1.7-1.4,3.6-2.7,5.8-3.2c1.2-0.3,1.8,0.6,2,0.5c0.2,0,0.5-0.3,0.8-0.4c0.2-0.1,1.3-0.1,1.5-0.1c0.9,0-0.1,0.7-1.1,1.6
			c-1.6,1.5-4.2,3.9-5.5,5.8c-0.1,0.2-0.8,1.1-0.5,1.3c0.1,0.1,0.7-0.2,1.1-0.5c0.3-0.2,0.6-0.4,0.8-0.4c1.5-0.7,4.7-4,7.4-6.9h-1.5
			c-0.1,0-0.2-0.1-0.1-0.2l0.5-0.5c0.1-0.1,0.3-0.2,0.4-0.2h1.4c1.7-1.8,3-3.3,3.1-3.4c0.2-0.2,1.3-1.4,1.4-1.5
			c0.1-0.1,0.3-0.1,0.4-0.1h1.6c0.1,0,0.2,0.1,0.1,0.2l-0.1,0.1c-0.3,0.4-2.1,2.4-4.3,4.7h0.7c0.1,0,0.2,0.1,0.1,0.2l-0.5,0.5
			c-0.1,0.1-0.3,0.2-0.4,0.2h-0.6c-3.3,3.5-6.9,7.4-6.7,7.9c0.2,0.5,2-0.4,3.1-1.1c1.9-1.2,4.7-4.1,7.2-6.8H179
			c-0.1,0-0.2-0.1-0.1-0.2l0.5-0.5c0.1-0.1,0.3-0.2,0.4-0.2h1.6c1.7-1.8,3-3.3,3.1-3.4c0.2-0.2,1.3-1.4,1.4-1.5
			c0.1-0.1,0.3-0.1,0.4-0.1h1.6c0.1,0,0.2,0.1,0.1,0.2l-0.1,0.1c-0.3,0.4-2.1,2.4-4.3,4.7h2c0.1,0,0.2,0.1,0.1,0.2l-0.5,0.5
			c-0.1,0.1-0.3,0.2-0.4,0.2h-1.9c-3.3,3.5-6.9,7.4-6.7,7.9c0.1,0.3,0.7,0.1,1.4-0.2c1-0.5,2.2-1.3,2.8-1.7c0.5-0.4,1.2-1,1.7-1.3
			c0.1,0,0.2,0,0.2,0c0.1,0.1,0,0.3,0,0.4c-0.2,0.6-2.1,1.9-3.6,2.7c-0.3,0.2-0.6,0.3-0.8,0.5C177,134.3,176.1,134.6,175.6,134z
			 M98.8,134c-0.3-0.2-0.4-0.6-0.5-1l0-0.1c0-0.1,0-0.2,0-0.3c0-0.3,0.1-0.5,0.1-0.5s-0.5,0.3-0.8,0.5l-0.2,0.1
			c-1.3,0.9-3.4,2.2-4.4,1.3c-0.3-0.2-0.4-0.6-0.5-1l0-0.1c0-0.1,0-0.2,0-0.3c0-0.3,0.1-0.5,0.1-0.5s-0.5,0.3-0.8,0.5
			c-0.4,0.3-1,0.7-1.6,1c-0.5,0.3-1,0.5-1.3,0.6c-1.9,0.6-3.6-1.1-2.8-3c0.1-0.2,0.1-0.4,0.2-0.5l-0.1-0.1c-0.1,0-1.1,0.5-1.8,1
			c-0.5,0.3-0.9,0.5-1,0.6c-1,0.6-2.2,1.1-3.2,1.8c-0.8,0.5-1.3,1.4-1.8,2c-1.9,2.3-5.5,7.1-8.2,8.6c-0.6,0.3-1.6,0.8-2.2,0.4
			c-0.8-0.5-0.5-1.5-0.2-2.1c0.9-1.6,2.2-2.7,3.5-3.8c1-0.8,2-1.5,3-2.2c0.9-0.6,2.5-1.4,3.2-2c0.6-0.5,1.7-1.8,2-2.5l-0.1,0
			c-1.2,0.6-2.6,2.2-4,2.3c-0.5,0-1-0.5-1.2-0.9c-0.2-0.7,0.2-1.4,0.3-2c0-0.1-0.1-0.1-0.1-0.1c0,0-0.2,0.1-0.6,0.3
			c-1.2,0.6-3.7,2-3.9,2.2c-0.3,0.2-0.7,0.6-1.1,1.1c-1,1.2-2.1,2.9-2.8,3.7c-1.5,1.9-3.8,4.5-5.9,5.7c-0.6,0.3-1.6,0.8-2.2,0.5
			c-0.2-0.1-0.6-0.4-0.6-0.6c-0.5-2.5,4.7-6,6.5-7.3c0.3-0.2,0.5-0.4,0.8-0.5c1.1-0.7,2.2-1.4,3-2.3c0.6-0.6,1-1.2,1.5-2l0.2-0.3
			c-0.1,0-0.2,0.1-0.4,0.3c-1,0.6-2.3,1.9-3.4,2.1c-0.8,0.2-1.4-0.8-1.4-1.5c0-0.1,0.2-0.9-0.2-0.6c-0.3,0.2-0.6,0.4-0.8,0.6
			c-0.2,0.2-0.4,0.3-0.7,0.5c-1.2,0.7-3.3,1.7-4.5,0.3c-0.3-0.4-0.4-0.8-0.5-1.3c0-0.2,0.1-1.1,0.3-1.6c0.3-0.4,0.5-0.9,0.8-1.3
			c0.7-1,1.7-2.1,2.7-2.8c1.2-0.8,3.4-2.3,4.8-2.4c0.5,0,1.2,0.1,1.4,0.6c0.4,1.1-1.1,2.3-1.9,2.9c-1.1,0.8-2.6,1.3-3.9,1.7l-0.1,0
			c0,0,0,0-0.1,0c-0.3,0.1-0.7,0.1-0.7,0.1s-0.1,0.1-0.3,0.3c-0.1,0.1-0.2,0.2-0.3,0.3c-0.1,0.1-0.2,0.2-0.2,0.3
			c-0.1,0.1-0.1,0.1-0.1,0.2c-0.7,0.9-1.4,2.1-1.1,2.7c0.7,0.9,2.7-0.2,4.1-1.2c0.6-0.4,1.2-0.8,1.5-1c0.6-0.4,1-1.1,1.4-1.6
			c0.9-1,2-2.1,3.2-2.8c0.9-0.5,4-2.2,4.9-1.5c0.2,0.2,0.4,0.7,0.4,0.8c0.2,0.2,0.7-0.7,1.4-0.7c0.2,0,1.5-0.3,1.3,0.2
			c-0.2,0.4-2,2.2-2.5,2.7c-0.6,0.7-3.2,3.7-3.5,4.3l0.1,0.1c0.7-0.2,1.8-0.8,2.9-1.4c0.8-0.5,1.6-1,2-1.3c0.7-0.5,1.3-1.2,2-1.8
			c1.3-1.2,4.2-3,6-2.8c0.7,0.1,0.6,0.9,1,0.9c0.3-0.1,0.6-0.5,0.9-0.7c0.2-0.1,1.5-0.3,1.6,0c0,0.1-0.2,0.4-0.3,0.5
			c-1.9,2.2-4,4.3-5.7,6.6l0.1,0.1c0.5-0.1,0.9-0.3,1.2-0.6c0.5-0.4,1.1-0.6,1.7-0.9c0.2-0.1,0.4-0.2,0.6-0.4c0.5-0.4,1.1-0.6,1.6-1
			c0.3-0.2,0.5-0.4,0.8-0.6c0.4-0.3,0.7-0.8,1-1.1c1-0.9,1.9-1.7,3-2.4c0.9-0.6,4-2.2,4.6-0.7c0,0.1,0.1,0.4,0.2,0.4
			c0,0,0,0.3,0,0.3c-0.2,0.1-0.2,0.4-0.3,0.5c-0.5,0.8-1.5,1.7-2.4,2.1c-0.6,0.3-1.2,0.6-1.8,0.8c-1.2,0.3-2.4,0.5-2.4,0.5l-0.2,0.2
			c-0.5,0.5-3.3,3.9-0.9,3.7c0.5,0,1.3-0.3,1.9-0.7c0.3-0.2,0.6-0.4,0.8-0.4c1.5-0.7,4.7-4,7.4-6.9h-1.5c-0.1,0-0.2-0.1-0.1-0.2
			l0.5-0.5c0.1-0.1,0.3-0.2,0.4-0.2h1.4c1.7-1.8,3-3.3,3.1-3.4c0.2-0.2,1.3-1.4,1.4-1.5c0.1-0.1,0.3-0.1,0.4-0.1h1.6
			c0.1,0,0.2,0.1,0.1,0.2l-0.1,0.1c-0.3,0.4-2.2,2.4-4.3,4.7h0.7c0.1,0,0.2,0.1,0.1,0.2l-0.5,0.5c-0.1,0.1-0.3,0.2-0.4,0.2h-0.6
			c-3.3,3.5-6.9,7.4-6.7,7.9c0.2,0.5,2-0.4,3.1-1.1c1.9-1.2,4.7-4.1,7.2-6.8h-1.8c-0.1,0-0.2-0.1-0.1-0.2l0.5-0.5
			c0.1-0.1,0.3-0.2,0.4-0.2h1.6c1.7-1.8,3-3.3,3.1-3.4c0.2-0.2,1.3-1.4,1.4-1.5c0.1-0.1,0.3-0.1,0.4-0.1h1.6c0.1,0,0.2,0.1,0.1,0.2
			l-0.1,0.1c-0.3,0.4-2.1,2.4-4.3,4.7h2c0.1,0,0.2,0.1,0.1,0.2l-0.5,0.5c-0.1,0.1-0.3,0.2-0.4,0.2h-1.9c-3.3,3.5-6.9,7.4-6.7,7.9
			c0.1,0.3,0.7,0.1,1.4-0.2c1-0.5,2.2-1.3,2.8-1.7c0.5-0.4,1.2-1,1.7-1.3c0.1,0,0.2,0,0.2,0c0.1,0.1,0,0.3,0,0.4
			c-0.2,0.6-2.1,1.9-3.6,2.7c-0.3,0.2-0.6,0.3-0.8,0.5C100.2,134.3,99.3,134.6,98.8,134z M95,125c-0.8-0.2-3.3,1.9-4.2,3
			c-0.3,0.3-0.7,0.7-0.7,0.7s0.4,0,1.1-0.3l0.5-0.2c1.4-0.7,3.5-2.4,3.5-3.1L95,125z M65.5,136.6c-0.2-0.2-1.8,1-2.1,1.2
			c-1.9,1.6-4,2.9-5.3,5.1c-0.1,0.2-0.4,0.7-0.3,1c0,0.1,0.1,0.1,0.2,0.2c0.6,0.1,2.6-1.7,3-2.2C61.6,141.2,65.5,137,65.5,136.6z
			 M75.8,136.6c-0.8,0.1-5,3.6-5.7,4.3c-0.3,0.3-2.4,2.8-1.9,3.2c0.9,0.7,4.9-4.2,5.6-4.9C74.4,138.4,75.3,137.5,75.8,136.6z
			 M84,126c-0.1-0.2-0.4-0.3-0.6-0.2c-1.7,0.2-6,4.8-7.2,6.1c-0.2,0.2-1.2,1.3-0.8,1.5C76.6,134,84.6,127.4,84,126z M73.5,125.8
			c-0.9-1-6.1,4.1-6.8,5c-0.3,0.3-2,2.1-1.4,2.5c0.6,0.4,3.3-2,3.9-2.3c0.6-0.4,3.4-3,3.9-3.7c0.1-0.2,0.3-0.5,0.4-0.8
			C73.5,126.4,73.6,126,73.5,125.8z M66.5,124.8c-0.8-0.5-3.1,1.8-4.3,2.9c-0.1,0-0.1,0.1-0.2,0.2c-0.3,0.3-0.8,0.8-0.8,0.8
			s0.9-0.2,1.4-0.4C64.1,127.6,66.5,125.7,66.5,124.8L66.5,124.8z M52.1,133.7c-0.4-0.2-0.8-0.4-1.2-0.5c-0.6,0.3-1.2,0.6-1.7,0.8
			c-2,0.8-5,1.8-6.9,0.5c-0.1-0.1-0.3-0.2-0.3-0.4c-0.2-0.2-0.3-0.5-0.2-0.7c0-0.2,0.1-0.4,0.2-0.5c1-1.7,4.4-1.6,6-1.3
			c0.1,0,0.3,0.1,0.4,0.1c0.4,0.1,0.9,0.2,1.3,0.3c0.4-0.4,0.9-0.8,1.5-1.4c2.3-2.4,5.9-7,6.6-7.9c0.1-0.1,0.2-0.3,0.4-0.5
			c0.3-0.4,0.7-0.9,1.2-1.5c-1,0.2-1.7,0.3-1.9,0.3c-0.2,0-0.4,0-0.6,0c-1.1,0-2.2,0.1-3.3-0.1c-2.5-0.5-5.8-1.5-6.8-4.1
			c-0.2-0.4-0.2-0.8-0.2-1.2c0-0.2,0-0.3,0-0.5c0.1-0.5,0.3-1.1,0.7-1.5c2.2-2.2,6-2.9,9-2.3c0.2,0,1.7,0.4,1.7,0.6
			c0,0.1-0.1,0.1-0.1,0.1c-0.5,0-0.9-0.1-1.4-0.1c-1.5-0.1-2.9-0.2-4.4,0.1c-1.8,0.3-5.3,1.2-5,3.7c0,0.4,0.3,1.1,0.4,1.4
			c0.7,1.2,2.3,2,3.5,2.4c2.1,0.8,4.6,1,6.8,0.7l0.2,0l0.3,0c0.5-0.1,1-0.1,1.4-0.2c0.4-0.5,2.7-3.1,4.3-4.8
			c1.3-1.3,8.3-7.5,10.1-5.5c0.4,0.5,0.4,1.1,0.2,1.6c-0.9,2.3-4,4.7-6.9,6.4l-0.1,0.1c-1.4,0.9-3.5,1.6-5.4,2.1
			c-0.7,1.1-1,1.7-1.3,2.1c0,0,0,0.1-0.1,0.1c-0.2,0.4-0.4,0.7-0.5,0.9c-0.6,1.1-1.3,2.2-2,3.3c-1.3,1.9-2.8,3.8-4.7,5.1l-0.2,0.2
			c-0.4,0.3-1,0.7-1.6,1c0.4,0.2,0.8,0.4,1.1,0.5c1.6,0.7,4.9,1.6,5.6,1.8c0.9,0.2,1.8,0.3,2.8,0.3c0.7,0,1.5-0.2,2.2-0.2
			c0,0,0.2,0.1,0.1,0.1c-0.1,0.4-3,0.7-3.1,0.8c-0.6,0-2.5,0-3.1-0.2c-1.3-0.4-2.5-0.9-3.7-1.5c-0.5-0.2-0.9-0.4-1.3-0.6
			C52.3,133.8,52.2,133.8,52.1,133.7z M62.6,119.4c2.2-0.7,3.8-1.6,4.6-2c0.5-0.3,0.9-0.6,1.4-0.9c2-1.1,3.9-3.1,5-5
			c0.1-0.2,0.4-0.8,0.2-1.1c-0.7-1.1-5.2,1.9-5.9,2.5c-0.6,0.5-1.3,1-1.8,1.5c-0.4,0.4-0.8,1-1.2,1.5
			C64.6,116.4,62.9,118.9,62.6,119.4z M46.9,133.9c0.2-0.1,1.3-0.7,1.3-0.7c0.3-0.2,0.6-0.4,0.9-0.6c-0.2-0.1-0.4-0.1-0.6-0.2
			c-1.3-0.5-5.8-0.7-6.3,1.1c-0.1,0.2,0.1,0.4,0.2,0.5C43.3,134.9,46,134.3,46.9,133.9z"/>
		<path d="M31.1,125.2h1l3.7,9.4h-1l-1.1-2.9h-4.3l-1.1,2.9h-1L31.1,125.2z M29.7,130.8h3.7l-1.8-4.8L29.7,130.8z"/>
		<g>
			<path d="M204.5,128c-0.3-1.4-1.5-2.3-2.9-2.3c-2.5,0-3.5,2.1-3.5,4.1c0,2,1,4.1,3.5,4.1c1.7,0,2.8-1.3,3-3h0.9
				c-0.3,2.3-1.7,3.8-3.9,3.8c-3,0-4.4-2.3-4.4-4.9c0-2.6,1.5-4.9,4.4-4.9c1.8,0,3.5,1.1,3.8,3H204.5z"/>
			<path d="M211,125c2.9,0,4.4,2.3,4.4,4.9c0,2.6-1.5,4.9-4.4,4.9c-2.9,0-4.4-2.3-4.4-4.9C206.6,127.3,208,125,211,125z M211,134
				c2.5,0,3.5-2.1,3.5-4.1c0-2-1-4.1-3.5-4.1c-2.5,0-3.5,2.1-3.5,4.1C207.5,131.9,208.5,134,211,134z"/>
			<path d="M217,125.2h1.3l3.2,8.2l3.2-8.2h1.3v9.4h-0.9v-8.1h0l-3.2,8.1h-0.8l-3.2-8.1h0v8.1H217V125.2z"/>
			<path d="M228.1,125.2h4.2c1.7,0,2.8,1,2.8,2.7c0,1.7-1.1,2.7-2.8,2.7H229v4h-0.9V125.2z M229,129.7h3.1c1.2,0,2.1-0.6,2.1-1.9
				c0-1.3-0.9-1.9-2.1-1.9H229V129.7z"/>
			<path d="M238.3,125.2h1l3.7,9.4h-1l-1.1-2.9h-4.3l-1.1,2.9h-1L238.3,125.2z M236.9,130.8h3.7l-1.8-4.8L236.9,130.8z"/>
			<path d="M244.1,125.2h1l5.5,7.9h0v-7.9h0.9v9.4h-1l-5.5-7.9h0v7.9h-0.9V125.2z"/>
			<path d="M256.1,130.7l-3.7-5.5h1.1l3.1,4.7l3.1-4.7h1.1l-3.7,5.5v3.9h-0.9V130.7z"/>
		</g>
	</g>
	<g>
		<path class="st0" d="M0,1.2h34.7v7.6H8.8v13.1h22.7v7.2H8.8v22.3H0V1.2z"/>
		<path class="st0" d="M49.2,1.2h9.4l19.3,50.2h-9.4l-4.7-13.3h-20L39,51.4h-9.1L49.2,1.2z M46.1,31.4h15.3L53.9,9.8h-0.2L46.1,31.4
			z"/>
		<path class="st0" d="M87.4,34.7c0,7.7,5.7,10.8,12.7,10.8c7.7,0,10.6-3.8,10.6-7.6c0-3.9-2.1-5.4-4.2-6.2c-3.5-1.3-8.1-2.3-15-4.1
			C83,25.2,80.5,20,80.5,14.8C80.5,4.7,89.8,0,98.8,0c10.5,0,19.3,5.6,19.3,16h-8.8c-0.4-6.5-4.8-8.9-10.8-8.9
			c-4.1,0-9.2,1.5-9.2,6.5c0,3.5,2.4,5.5,6,6.5c0.8,0.2,11.9,3.1,14.5,3.9c6.6,2,9.8,7.6,9.8,12.8c0,11.2-10,15.7-20,15.7
			c-11.5,0-20.7-5.5-20.9-17.9H87.4z"/>
		<path class="st0" d="M177.5,1.2h8.8v50.2h-8.8V1.2z"/>
		<path class="st0" d="M241.2,26.3c0,14.3-9,26.3-24,26.3c-15,0-24-11.9-24-26.3c0-14.3,9-26.3,24-26.3
			C232.2,0,241.2,11.9,241.2,26.3z M201.9,26.3c0,9.6,4.5,19.1,15.3,19.1c10.8,0,15.2-9.5,15.2-19.1c0-9.6-4.5-19.1-15.2-19.1
			C206.4,7.2,201.9,16.7,201.9,26.3z"/>
		<path class="st0" d="M247.3,1.2h9.3l22.9,37h0.1v-37h8.4v50.2h-9.3l-22.8-36.9h-0.2v36.9h-8.4V1.2z"/>
		<g>
			<polyline class="st0" points="134.5,51.4 125.7,51.4 125.7,1.2 134.5,1.2 			"/>
			<path class="st0" d="M159.2,1.2v22.5c-7.2-3.5-15.7-3.5-22.8,0v7.6c7.2-3.5,15.7-3.5,22.8,0v20.1h8.8V1.2H159.2z"/>
		</g>
	</g>
	<g>
		<g>
			<path class="st1" d="M0,61.4h12.5c4.6,0,7.6,2.1,7.6,6.4c0,2.6-1.3,4.5-3.7,5.5v0.1c3.1,0.7,4.8,3.1,4.8,6.6c0,4-2.8,7.2-9.5,7.2
				H0V61.4z M4.5,72.1h7.4c2.2,0,3.8-1.3,3.8-3.6c0-2.6-1.3-3.5-3.8-3.5H4.5V72.1z M4.5,83.4h8c2.7,0,4.3-1.5,4.3-4.1
				c0-2.5-1.6-4-4.3-4h-8V83.4z"/>
			<path class="st1" d="M24.4,61.4H43v3.9h-14V72h13v3.7h-13v7.5h14.3v3.9H24.4V61.4z"/>
			<path class="st1" d="M46.2,61.4h10.7c7.9,0,11.4,5.8,11.4,12.9c0,7.1-3.4,12.9-11.4,12.9H46.2V61.4z M50.7,83.4h4.4
				c7.1,0,8.6-4,8.6-9.2c0-5.2-1.5-9.2-8.6-9.2h-4.4V83.4z"/>
			<path class="st1" d="M101.1,87.1h-2.9l-0.7-3c-2.4,2.7-4.6,3.6-7.8,3.6c-7.7,0-12.3-6.1-12.3-13.5c0-7.4,4.6-13.5,12.3-13.5
				c5.6,0,10.3,3,11,8.8h-4.4c-0.4-3.4-3.4-5.1-6.6-5.1c-5.5,0-7.8,4.9-7.8,9.8c0,4.9,2.3,9.8,7.8,9.8c4.6,0.1,7.1-2.7,7.2-7.1h-6.8
				v-3.4h11V87.1z"/>
			<path class="st1" d="M106.7,61.4H119c5.6,0,8.5,2.6,8.5,7c0,4.9-3.4,6.2-4.3,6.5v0.1c1.5,0.2,3.8,1.4,3.8,5.4
				c0,3,0.4,5.7,1.4,6.8h-4.8c-0.7-1.1-0.7-2.5-0.7-3.8c0-4.7-1-6.8-5.1-6.8h-6.6v10.6h-4.5V61.4z M111.2,73.1h7.4
				c2.8,0,4.4-1.4,4.4-4.1c0-3.3-2.1-3.9-4.5-3.9h-7.3V73.1z"/>
			<path class="st1" d="M156.1,74.2c0,7.4-4.6,13.5-12.3,13.5c-7.7,0-12.3-6.1-12.3-13.5c0-7.4,4.6-13.5,12.3-13.5
				C151.5,60.7,156.1,66.9,156.1,74.2z M135.9,74.2c0,4.9,2.3,9.8,7.8,9.8c5.5,0,7.8-4.9,7.8-9.8c0-4.9-2.3-9.8-7.8-9.8
				C138.2,64.4,135.9,69.3,135.9,74.2z"/>
			<path class="st1" d="M160.2,61.4h4.5v15c0,3.5,0.2,7.5,6.1,7.5c5.8,0,6.1-4,6.1-7.5v-15h4.5v16.5c0,6.6-4.2,9.9-10.6,9.9
				c-6.3,0-10.6-3.3-10.6-9.9V61.4z"/>
			<path class="st1" d="M187.3,61.4h11.3c7.4,0,8.8,4.8,8.8,8c0,3.2-1.4,7.9-8.8,7.9h-6.8v9.9h-4.5V61.4z M191.8,73.5h6.6
				c2,0,4.5-1,4.5-4.3c0-3.4-2.1-4.3-4.4-4.3h-6.7V73.5z"/>
		</g>
		<g>
			<path class="st1" d="M212,87.2c-2.7,0-4.6-2-4.6-4.6c0-2.8,2.1-4.6,4.6-4.6c2.4,0,4.5,1.8,4.5,4.6
				C216.6,85.3,214.5,87.2,212,87.2z M212,78.7c-2,0-3.6,1.6-3.6,3.8c0,2.1,1.4,3.8,3.6,3.8c2,0,3.6-1.6,3.6-3.8
				C215.6,80.3,214,78.7,212,78.7z M211.1,85.2h-0.8V80h2c1.2,0,1.9,0.4,1.9,1.5c0,0.9-0.6,1.3-1.3,1.4l1.4,2.3h-1l-1.3-2.2h-0.8
				V85.2z M212.1,82.3c0.6,0,1.2-0.1,1.2-0.8c0-0.6-0.6-0.7-1.1-0.7h-1v1.5H212.1z"/>
		</g>
	</g>
</g>
</svg>
